<svg width="969" height="307" viewBox="0 0 969 307" fill="none" xmlns="http://www.w3.org/2000/svg">
<g clip-path="url(#clip0_5_30)">
<rect width="969" height="307" fill="white"/>
<rect width="969" height="307" fill="#C8EBFF"/>
<path d="M718.444 253H575.037C567.837 253 562 247.163 562 239.963V90.037C562 82.8369 567.837 77 575.037 77H718.444C725.645 77 731.481 82.8369 731.481 90.037V239.963C731.481 247.163 725.645 253 718.444 253Z" fill="#C8EBFF"/>
<path d="M627.185 176.951H562V112.635C562 110.955 563.362 109.593 565.042 109.593H593.723C595.403 109.593 596.765 110.955 596.765 112.635V141.316C596.765 142.996 598.127 144.358 599.807 144.358H624.143C625.823 144.358 627.185 145.72 627.185 147.4V176.951Z" fill="#676767"/>
<path d="M728.439 183.469H664.993C663.313 183.469 661.951 182.107 661.951 180.427V147.4C661.951 145.72 663.313 144.358 664.993 144.358H693.674C695.354 144.358 696.716 142.996 696.716 141.316V112.635C696.716 110.955 698.078 109.593 699.758 109.593H728.439C730.12 109.593 731.481 110.955 731.481 112.635V180.427C731.481 182.107 730.12 183.469 728.439 183.469Z" fill="#676767"/>
<path d="M624.143 213.889H565.042C563.362 213.889 562 212.527 562 210.847V176.951H627.185V210.847C627.185 212.527 625.823 213.889 624.143 213.889Z" fill="white"/>
<path d="M661.951 210.847V176.951H731.481V210.847C731.481 212.527 730.12 213.889 728.439 213.889H664.993C663.313 213.889 661.951 212.527 661.951 210.847Z" fill="white"/>
<path d="M175 114.579V77H230.107C230.107 77 248.433 192.095 276.138 191.587C303.842 191.079 321.844 77 321.844 77H366.416L296.398 230H255.229L204.526 114.579H175Z" fill="white"/>
<path d="M346.998 149.425H397.981V168.107H346.998V198.107C346.998 204.613 352.272 209.887 358.778 209.887H370.925C379.821 209.887 387.276 209.826 393.288 209.703C399.3 209.519 407.526 210.991 414.889 200.684L407.644 229.029H322.243C322.918 225.347 323.317 220.041 323.44 213.108C323.562 206.114 323.624 198.077 323.624 188.997V134.701C323.624 125.621 323.562 117.615 323.44 110.682C323.317 103.688 322.918 98.3503 322.243 94.6692H404.883V113.811H346.998V149.425Z" fill="white"/>
<path d="M468.165 229.014L441.306 193.119L414.446 156.426C412.294 153.426 410.304 150.751 408.478 148.403C406.716 146.055 404.727 143.478 402.509 140.673C400.291 137.868 397.421 134.313 393.898 130.008H422.959L476.482 203.393C478.569 206.198 480.494 208.808 482.255 211.221C484.081 213.57 486.136 216.179 488.419 219.049C490.768 221.854 493.67 224.643 497.128 229.014H468.165ZM425.816 186.045C427.35 183.987 430.572 184.548 431.321 187.003L433.576 194.391L436.706 203.241C437.044 204.196 436.899 205.256 436.317 206.085L420.219 229.014H392.92C396.573 224.317 399.541 221.299 401.824 218.364C404.107 215.363 406.064 212.721 407.695 210.438C409.391 208.155 411.119 205.807 412.881 203.393L425.816 186.045ZM465.498 171.622C464.019 173.805 460.668 173.293 459.908 170.767L458.184 165.037L454.886 154.447C454.619 153.59 454.732 152.66 455.197 151.893L468.458 130.008H495.66C492.333 134.313 489.528 137.966 487.245 140.966C485.027 143.902 483.038 146.544 481.276 148.892C479.515 151.24 477.689 153.752 475.797 156.426L465.498 171.622Z" fill="white"/>
</g>
<defs>
<clipPath id="clip0_5_30">
<rect width="969" height="307" fill="white"/>
</clipPath>
</defs>
</svg>
