<svg width="323" height="153" viewBox="0 0 323 153" fill="none" xmlns="http://www.w3.org/2000/svg">
<path d="M0 37.5789V0H55.1071C55.1071 0 73.4333 115.095 101.138 114.587C128.842 114.079 146.844 0 146.844 0H191.416L121.398 153H80.2294L29.5263 37.5789H0Z" fill="white"/>
<path d="M171.998 72.4252H222.981V91.1067H171.998V121.107C171.998 127.613 177.272 132.887 183.778 132.887H195.925C204.821 132.887 212.276 132.826 218.288 132.703C224.3 132.519 232.526 133.991 239.889 123.684L232.644 152.029H147.243C147.918 148.347 148.317 143.041 148.44 136.108C148.562 129.114 148.624 121.077 148.624 111.997V57.7009C148.624 48.6209 148.562 40.6146 148.44 33.6819C148.317 26.6878 147.918 21.3503 147.243 17.6692H229.883V36.8108H171.998V72.4252Z" fill="white"/>
<path d="M293.165 152.014L266.306 116.119L239.446 79.4264C237.294 76.4257 235.304 73.7512 233.478 71.4029C231.716 69.0545 229.727 66.4779 227.509 63.6729C225.291 60.8679 222.421 57.3128 218.898 53.0075H247.959L301.482 126.393C303.569 129.198 305.494 131.808 307.255 134.221C309.081 136.57 311.136 139.179 313.419 142.049C315.768 144.854 318.67 147.643 322.128 152.014H293.165ZM250.816 109.045C252.35 106.987 255.572 107.548 256.321 110.003L258.576 117.391L261.706 126.241C262.044 127.196 261.899 128.256 261.317 129.085L245.219 152.014H217.92C221.573 147.317 224.541 144.299 226.824 141.364C229.107 138.363 231.064 135.721 232.695 133.438C234.391 131.155 236.119 128.807 237.881 126.393L250.816 109.045ZM290.498 94.622C289.019 96.8054 285.668 96.2931 284.908 93.7674L283.184 88.037L279.886 77.4467C279.619 76.5901 279.732 75.6602 280.197 74.8929L293.458 53.0075H320.66C317.333 57.3128 314.528 60.9658 312.245 63.9665C310.027 66.9019 308.038 69.5438 306.276 71.8921C304.515 74.2405 302.689 76.7519 300.797 79.4264L290.498 94.622Z" fill="white"/>
</svg>
