<svg width="170" height="176" viewBox="0 0 170 176" fill="none" xmlns="http://www.w3.org/2000/svg">
<path d="M156.444 176H13.037C5.83688 176 0 170.163 0 162.963V13.037C0 5.83688 5.83688 0 13.037 0H156.444C163.645 0 169.481 5.83687 169.481 13.037V162.963C169.481 170.163 163.645 176 156.444 176Z" fill="#C8EBFF"/>
<path d="M65.1852 99.9508H0V35.6347C0 33.9547 1.36194 32.5928 3.04198 32.5928H31.7235C33.4035 32.5928 34.7654 33.9547 34.7654 35.6348V64.3162C34.7654 65.9963 36.1274 67.3582 37.8074 67.3582H62.1432C63.8232 67.3582 65.1852 68.7201 65.1852 70.4002V99.9508Z" fill="#676767"/>
<path d="M166.439 106.469H102.993C101.313 106.469 99.9506 105.107 99.9506 103.427V70.4002C99.9506 68.7201 101.313 67.3582 102.993 67.3582H131.674C133.354 67.3582 134.716 65.9963 134.716 64.3162V35.6347C134.716 33.9547 136.078 32.5928 137.758 32.5928H166.439C168.12 32.5928 169.481 33.9547 169.481 35.6348V103.427C169.481 105.107 168.12 106.469 166.439 106.469Z" fill="#676767"/>
<path d="M62.1432 136.889H3.04198C1.36194 136.889 0 135.527 0 133.847V99.9506H65.1852V133.847C65.1852 135.527 63.8232 136.889 62.1432 136.889Z" fill="white"/>
<path d="M99.9506 133.847V99.9506H169.481V133.847C169.481 135.527 168.12 136.889 166.439 136.889H102.993C101.313 136.889 99.9506 135.527 99.9506 133.847Z" fill="white"/>
</svg>
